<?xml version="1.0" encoding="utf-8"?>
<!-- Generator: Adobe Illustrator 27.0.1, SVG Export Plug-In . SVG Version: 6.00 Build 0)  -->
<svg version="1.1" id="Calque_2_00000091720961839095166770000013516346422133167248_"
	 xmlns="http://www.w3.org/2000/svg" xmlns:xlink="http://www.w3.org/1999/xlink" x="0px" y="0px" viewBox="0 0 95 207.2"
	 style="enable-background:new 0 0 95 207.2;" xml:space="preserve">
<style type="text/css">
	.st0{fill:#FFFFFF;}
</style>
<g>
	<g id="Calque_2-2_00000011001608941213121040000006486822717360868257_">
		<g id="Calque_1-2_00000006670298777276458740000001220383482031980928_">
			<g>
				<path class="st0" d="M39.4,150.8c-1-1.1-2.5-0.7-3.7-1.1c-2.3-0.7-4.7-1-6.9-1.7c-13.7-4-14.1-4.6-18.6-18
					c-3.5-10.6-7-21.2-10.7-32.2c5,1.2,9.5,2.3,14.1,3.2c26.4,5.5,52.6,4.9,78.7-1.8c0.5-0.1,1-0.2,1.5-0.3c0.7-0.1,1.4-0.8,2-0.2
					c0.6,0.6-0.1,1.4-0.3,2c-2.2,6.3-4.5,12.7-6.7,19c-2.3,6.6-4.8,13.2-7,19.9c-0.6,1.8-1.6,2.9-3.3,3.8
					c-7.1,3.5-14.5,5.9-22.4,6.8c-0.4,0-0.7,0.3-1,0.5H39.4L39.4,150.8z M59.2,146.3c1.1-12.5,1.8-25,1.4-37.5
					C59.2,121.3,58.3,133.8,59.2,146.3z M36.1,108c-0.1,11.9,0.5,23.8,2.5,35.6C38.9,131.6,37.7,119.8,36.1,108z M73.2,107.1
					c-2.2,4.6-5.6,33.6-4.1,36.6C70.8,131.4,72.1,119.6,73.2,107.1z M18,141.2c-1.5-11.2-3.4-22.3-6.5-33.2
					C12.7,119.2,14.6,130.3,18,141.2z M77.3,140.2c3.1-10,5.2-20.3,6.6-30.7C80.6,119.4,78.6,129.7,77.3,140.2z M27.4,140.6
					c0.4-9.9-1.5-19.5-2.9-29.2C24.2,121.3,25.6,131,27.4,140.6z M48.7,110.6c-0.3,0-0.7,0-1,0c-0.3,12-0.7,23.9,1,35.9V110.6
					L48.7,110.6z"/>
				<path class="st0" d="M61.8,88.6c-13.1,0.3-24.9-3.3-36.8-6.4c-5.4-1.4-10.8-2.6-16.5-2.4c-1.6,0.1-3.6,0.1-4.4-1.7
					c-0.8-1.7,0.4-3.2,1.5-4.5c3.1-3.8,6.9-6.9,11.6-8.5c1.4-0.5,2.1-1.1,2.4-2.7c0.8-4.5,3.6-7.4,8-8.6c1.8-0.5,2.6-0.9,2.5-3
					c-0.2-3.3,1.8-5.6,4.4-7.4c2.4-1.6,4.9-3.1,7.7-4c3-0.9,5-2.7,6.2-5.6c1-2.5,2.6-2.6,4.3-0.9c4.8,5.1,10.3,9.2,16.2,12.9
					c2.8,1.7,4,4.8,4,8c0,1.8,0.7,2.4,2.2,3c4.6,1.8,7,5.4,7,10.3c0,1.9,0.6,2.8,2.2,3.5c1.8,0.9,3.6,2.1,5,3.6
					c3.6,3.6,3.2,6.8-1.3,9.1C83,86,77.5,87,72,87.9C68.4,88.5,64.8,88.8,61.8,88.6L61.8,88.6z M57.9,74.2
					c-11-0.8-21.8-3.1-32.4-6.1C35.7,73.2,46.5,75.6,57.9,74.2z M66.5,58c-7.9,0.8-15.8,0.3-23.6,0.3C50.8,60.6,58.7,60.6,66.5,58z"
					/>
			</g>
		</g>
	</g>
</g>
</svg>
