<?xml version="1.0" encoding="UTF-8"?>
<svg id="Calque_2" data-name="Calque 2" xmlns="http://www.w3.org/2000/svg" viewBox="0 0 66.46 145">
  <defs>
    <style>
      .cls-1 {
        fill: #fff;
      }
    </style>
  </defs>
  <g id="Calque_2-2" data-name="Calque 2">
    <g id="Calque_2-2" data-name="Calque 2-2">
      <g id="Calque_1-2" data-name="Calque 1-2">
        <g>
          <path class="cls-1" d="M.03,69.6c.01-.45,.03-1.51,.06-2.85,.21-14.24,1.08-28.47,2.19-42.67,.17-2.13,.76-2.86,2.97-1.97,2.34,.94,4.84,1.46,7.24,2.23,3.06,.98,6.04,1.88,6.81-3.53,1.59,3.19,2.14,5.63,6.03,5.95,12.61,1.04,24.8-.36,36.72-4.46,2.13-.73,3.01-.69,3.09,1.95,.32,11.11,.98,22.21,1.2,33.33,.45,23.06-.37,46.09-1.87,69.11-.48,7.33-3.83,12.49-10.55,14.79-13.34,4.57-26.94,4.71-40.36,.41-6.45-2.07-10.04-7.05-10.74-13.98C1.23,112.11,.85,95.02,.1,79.69c-.04-.87-.08-1.57-.1-1.97,.01-2.71,.02-5.42,.03-8.12Zm17.35-31.35c.29-2.87-2.1-4.8-1.4-7.33,.45-1.65-.18-2.34-1.81-2.5-.9-.08-1.78-.43-2.67-.66-3.98-1.01-6.12,.56-6.43,4.69-2.37,31.73-2.15,63.42,1.22,95.06,.6,5.66,3.6,9.69,8.87,11.28,12.32,3.68,24.78,3.59,37.04-.38,5.55-1.8,8.42-5.91,8.81-11.98,.84-12.95,1.46-25.9,1.78-38.86,.5-19.69,.1-39.38-1-59.04-.13-2.23-.97-1.99-2.58-1.53-8.9,2.57-18,3.84-27.27,3.62-2.86-.07-5.7-.32-8.86-.51,2.47,4.23,.07,7.67-1.43,10.98-2.41,5.35,1.2,8.97,2.76,13.26,1.23-4.05,4.21-7.61,3.09-11.95-.58-2.24-.2-2.58,1.91-2.41,8.83,.7,17.48-.46,25.87-3.16,2.89-.93,3.28,.02,3.35,2.54,.22,8.68,.71,17.36,.87,26.04,.36,19.12-.3,38.22-1.63,57.29-.39,5.63-3.31,9.35-8.55,10.99-10.6,3.32-21.33,3.39-31.95,.21-4.77-1.43-7.75-4.98-8.31-10.09-2.97-26.9-3.08-53.86-1.11-80.84,.5-6.89,.65-6.88,7.13-5.26,.66,.17,1.33,.32,2.3,.55h0Zm25.17,45.65c-4.35,6.49-4.58,13.09,0,19.58,3.39-6.47,4.83-13.04,0-19.58Zm-9.09-24.44c-4.45,7.59-4.37,14.51,.22,19.14,3.18-6.35,4.53-12.73-.22-19.14Z"/>
          <path class="cls-1" d="M9.81,0c4.2,2.62,6.31,8.95,4.56,13.69-.83,2.24-1.69,4.47-2.76,7.3-2.03-5.47-3.82-10.3-5.61-15.12-1.16-3.14,.79-4.61,3.13-5.86h.69Z"/>
        </g>
      </g>
    </g>
  </g>
</svg>