<?xml version="1.0" encoding="UTF-8"?>
<svg id="Calque_2" data-name="Calque 2" xmlns="http://www.w3.org/2000/svg" viewBox="0 0 96.52 119">
  <defs>
    <style>
      .cls-1 {
        fill: #fff;
      }
    </style>
  </defs>
  <g id="Calque_2-2" data-name="Calque 2">
    <g id="Calque_2-2" data-name="Calque 2-2">
      <g id="Calque_1-2" data-name="Calque 1-2">
        <g>
          <path class="cls-1" d="M39.97,119c-1.01-1.13-2.49-.69-3.73-1.07-2.27-.68-4.65-1.01-6.92-1.68-13.66-4.04-14.14-4.55-18.59-17.96-3.51-10.59-7.05-21.16-10.73-32.21,4.96,1.15,9.51,2.28,14.1,3.25,26.36,5.53,52.58,4.89,78.66-1.81,.5-.13,1.01-.22,1.51-.33,.68-.14,1.42-.81,2.02-.16,.58,.63-.06,1.35-.28,2-2.23,6.34-4.48,12.68-6.72,19.02-2.35,6.63-4.75,13.24-7.01,19.9-.61,1.8-1.58,2.92-3.31,3.77-7.1,3.52-14.52,5.95-22.42,6.79-.36,.04-.69,.33-1.05,.5h-15.53Zm19.79-4.54c1.15-12.51,1.82-24.98,1.37-37.49-1.39,12.48-2.27,24.98-1.37,37.49Zm-23.13-38.33c-.14,11.92,.51,23.79,2.5,35.55,.27-11.94-.93-23.76-2.5-35.55Zm37.06-.88c-2.21,4.59-5.58,33.65-4.12,36.65,1.79-12.33,3.08-24.14,4.12-36.65ZM18.52,109.33c-1.53-11.15-3.38-22.3-6.48-33.18,1.15,11.25,3.11,22.33,6.48,33.18Zm59.34-1c3.09-10.04,5.24-20.29,6.63-30.72-3.37,9.98-5.34,20.27-6.63,30.72Zm-49.94,.45c.44-9.85-1.46-19.49-2.92-29.16-.22,9.83,1.1,19.52,2.92,29.16Zm21.33-29.99c-.33,0-.66,0-1,0-.27,11.97-.68,23.93,1,35.88v-35.89h0Z"/>
          <path class="cls-1" d="M62.35,56.79c-13.11,.26-24.91-3.35-36.8-6.4-5.41-1.39-10.84-2.62-16.49-2.43-1.61,.06-3.57,.1-4.36-1.67-.78-1.72,.44-3.2,1.48-4.48,3.12-3.84,6.85-6.92,11.59-8.53,1.43-.48,2.12-1.08,2.42-2.7,.83-4.46,3.62-7.41,8-8.55,1.75-.46,2.64-.92,2.54-2.99-.17-3.32,1.84-5.61,4.41-7.39,2.39-1.65,4.92-3.09,7.69-3.97,2.97-.95,5.05-2.73,6.16-5.64,.95-2.49,2.6-2.61,4.26-.88,4.82,5.05,10.27,9.23,16.22,12.86,2.8,1.71,3.97,4.79,4,8.02,.02,1.79,.67,2.43,2.23,3.04,4.62,1.81,7.02,5.41,6.98,10.33-.02,1.92,.64,2.75,2.17,3.53,1.83,.94,3.56,2.12,5.04,3.59,3.63,3.61,3.24,6.8-1.29,9.11-5.03,2.55-10.55,3.54-16.06,4.45-3.57,.59-7.19,.9-10.18,.68h-.01Zm-3.87-14.43c-11.01-.81-21.78-3.11-32.45-6.08,10.26,5.1,21,7.52,32.45,6.08Zm8.6-16.19c-7.87,.78-15.76,.31-23.65,.29,7.93,2.3,15.81,2.32,23.65-.29Z"/>
        </g>
      </g>
    </g>
  </g>
</svg>